<?xml version="1.0" standalone="no"?>
<!DOCTYPE svg PUBLIC "-//W3C//DTD SVG 20010904//EN"
 "http://www.w3.org/TR/2001/REC-SVG-20010904/DTD/svg10.dtd">
<svg version="1.0" xmlns="http://www.w3.org/2000/svg"
 width="1280.000000pt" height="1148.000000pt" viewBox="0 0 1280.000000 1148.000000"
 preserveAspectRatio="xMidYMid meet">

<g transform="translate(0.000000,1148.000000) scale(0.100000,-0.100000)"
fill="#000000" stroke="none">
<path d="M1470 9219 c-183 -39 -325 -115 -436 -233 -41 -43 -76 -77 -78 -75
-2 2 -20 68 -42 147 l-39 142 -282 0 -283 0 0 -1240 0 -1240 365 0 365 0 0
668 c0 726 4 797 57 961 63 199 173 285 382 298 180 12 278 -38 343 -174 56
-117 57 -145 58 -985 l0 -768 360 0 361 0 -3 918 -3 917 -27 98 c-15 54 -39
124 -53 154 -88 193 -281 344 -516 404 -126 32 -398 36 -529 8z"/>
<path d="M3774 9224 c-427 -72 -738 -349 -862 -769 -48 -165 -57 -245 -57
-520 1 -233 3 -257 27 -360 57 -241 140 -397 293 -550 179 -179 373 -274 675
-327 115 -20 506 -17 644 6 143 23 300 68 414 118 l92 40 0 289 c0 159 -3 289
-6 289 -3 0 -53 -20 -109 -45 -131 -57 -262 -100 -390 -127 -137 -29 -470 -33
-555 -5 -181 57 -304 200 -344 399 -9 42 -16 82 -16 88 0 7 244 10 775 10
l775 0 0 238 c0 263 -9 362 -45 500 -59 224 -192 420 -371 549 -118 84 -289
151 -457 178 -114 18 -371 18 -483 -1z m418 -544 c79 -30 160 -105 198 -184
27 -57 37 -95 54 -193 l6 -33 -426 0 -426 0 7 52 c27 197 138 331 309 375 73
18 207 10 278 -17z"/>
<path d="M5075 9173 c10 -41 471 -1666 505 -1783 11 -36 56 -193 100 -350 45
-157 83 -293 86 -302 5 -17 32 -18 383 -18 l379 0 11 46 c7 26 55 231 107 458
52 226 110 476 128 556 19 80 62 267 96 415 74 321 82 353 86 340 2 -5 30
-127 63 -270 33 -143 80 -345 104 -450 25 -104 70 -309 102 -455 32 -146 76
-348 99 -450 l41 -185 384 0 385 0 63 220 c132 457 319 1105 438 1520 68 237
142 493 164 569 23 76 41 145 41 153 0 11 -64 13 -355 13 l-354 0 -11 -42 c-6
-24 -69 -257 -140 -518 -164 -606 -173 -641 -210 -845 -50 -282 -44 -263 -59
-170 -36 221 -70 383 -158 740 -52 215 -117 482 -144 595 -27 113 -52 213 -55
223 -5 16 -33 17 -393 17 l-387 0 -157 -607 c-146 -570 -187 -751 -218 -965
-7 -49 -16 -88 -20 -88 -3 0 -9 28 -13 62 -23 224 -67 418 -266 1183 -35 132
-73 278 -85 325 l-21 85 -363 3 -363 2 7 -27z"/>
<path d="M2367 6313 c-4 -3 -7 -773 -7 -1710 l0 -1703 365 0 365 0 -2 1708 -3
1707 -356 3 c-195 1 -358 -1 -362 -5z"/>
<path d="M7973 6306 c-180 -41 -259 -124 -277 -292 -8 -77 8 -185 37 -243 29
-58 84 -104 160 -133 54 -20 80 -23 197 -23 l135 0 77 38 c49 23 87 50 103 72
63 82 87 212 61 335 -18 86 -52 141 -111 182 -92 62 -263 91 -382 64z"/>
<path d="M9165 5878 c-3 -7 -47 -125 -98 -262 l-93 -250 -182 -110 -182 -109
0 -169 0 -168 155 0 155 0 0 -613 c0 -361 4 -647 10 -697 25 -199 83 -333 195
-446 79 -80 134 -113 244 -149 117 -38 192 -47 361 -47 206 1 394 32 553 92
l57 21 0 281 c0 263 -1 280 -17 273 -10 -4 -67 -20 -128 -37 -143 -39 -340
-50 -409 -24 -57 22 -92 49 -114 89 -15 29 -17 89 -22 645 l-5 612 337 0 337
0 3 107 3 107 412 -1031 413 -1031 -70 -173 c-65 -162 -73 -178 -124 -226
l-54 -53 -1058 0 c-581 0 -1060 -2 -1062 -5 -3 -3 10 -8 29 -12 33 -7 33 -7 9
-14 l-25 -7 25 -2 c23 -1 23 -2 5 -10 -11 -5 -15 -9 -10 -9 8 -1 11 -360 5
-598 0 -7 -19 -14 -42 -16 -24 -2 570 -4 1319 -5 l1361 -2 10 28 c6 15 49 137
96 272 48 135 105 282 127 326 30 62 1099 2892 1099 2910 0 2 -175 4 -388 4
l-388 0 -58 -177 c-32 -98 -143 -437 -246 -753 -104 -316 -192 -588 -196 -605
-12 -53 -16 -49 -39 41 -13 49 -107 339 -209 644 -103 305 -208 620 -235 700
l-48 145 -666 3 -667 2 -2 258 -3 257 -238 3 c-185 2 -239 0 -242 -10z"/>
<path d="M1240 5414 c-105 -10 -237 -37 -339 -70 -412 -134 -662 -469 -722
-966 -15 -130 -7 -506 14 -618 41 -215 112 -390 214 -525 111 -146 254 -246
440 -308 180 -60 370 -81 613 -67 231 13 383 52 552 142 l78 42 0 322 0 322
-106 -64 c-176 -104 -299 -145 -492 -165 -376 -39 -558 145 -587 594 -8 119 7
292 35 401 42 167 118 269 242 327 73 34 74 34 213 33 155 -1 192 -9 438 -98
67 -25 123 -43 125 -41 2 1 35 85 73 186 39 101 86 224 105 273 19 49 33 94
30 101 -12 32 -336 140 -496 165 -79 12 -353 21 -430 14z"/>
<path d="M4295 5414 c-204 -30 -362 -65 -487 -110 -95 -34 -258 -110 -258
-121 -1 -16 235 -492 244 -492 5 -1 64 21 131 49 294 119 560 158 717 105 57
-20 123 -75 148 -125 22 -44 43 -160 38 -217 l-3 -38 -280 -11 c-342 -14 -486
-33 -652 -84 -358 -110 -535 -320 -560 -660 -7 -102 11 -268 39 -359 106 -348
420 -527 862 -491 275 23 425 88 600 263 43 43 79 77 80 75 2 -2 28 -69 60
-150 l58 -148 259 0 260 0 -4 903 c-4 971 -2 934 -56 1091 -89 256 -305 424
-636 497 -71 16 -137 21 -310 24 -121 2 -233 1 -250 -1z m535 -1496 c0 -245
-70 -383 -233 -463 -151 -73 -371 -67 -460 13 -68 61 -83 219 -31 327 72 152
236 209 617 214 l107 1 0 -92z"/>
<path d="M7175 5405 c-202 -38 -395 -164 -535 -349 -23 -31 -45 -56 -49 -56
-6 0 -20 54 -73 283 l-21 87 -278 0 -279 0 0 -1235 0 -1235 359 0 360 0 3 693
c3 622 6 698 21 751 57 193 205 326 417 373 93 20 285 22 358 4 29 -7 55 -12
56 -10 4 4 17 147 42 457 12 137 14 216 8 222 -12 12 -175 30 -259 29 -33 0
-91 -7 -130 -14z"/>
<path d="M7720 4135 l0 -1235 365 0 365 0 0 1235 0 1235 -365 0 -365 0 0
-1235z"/>
<path d="M11900 2175 l0 -345 340 0 340 0 0 345 0 345 -340 0 -340 0 0 -345z"/>
</g>
</svg>
